<svg width="30" height="30" viewBox="0 0 30 30" fill="none" xmlns="http://www.w3.org/2000/svg">
<g clip-path="url(#clip0_1096_192)">
<path d="M29.684 6.11695L23.8249 0.257461C23.66 0.0925781 23.4364 0 23.2034 0H9.72656C8.27268 0 7.08984 1.18283 7.08984 2.63672V14.2288C3.14027 14.6674 0.0585938 18.0253 0.0585938 22.0898C0.0585938 26.4515 3.60709 30 7.96875 30H27.3047C28.7586 30 29.9414 28.8172 29.9414 27.3633V6.73846C29.9414 6.50531 29.8488 6.28184 29.684 6.11695ZM24.082 3.00076L25.9916 4.91039L26.9406 5.85938H24.082V3.00076ZM1.81641 22.0898C1.81641 18.6974 4.57635 15.9375 7.96875 15.9375C11.3612 15.9375 14.1211 18.6974 14.1211 22.0898C14.1211 25.4822 11.3612 28.2422 7.96875 28.2422C4.57635 28.2422 1.81641 25.4822 1.81641 22.0898ZM27.3047 28.2422H12.9345C14.5144 26.9646 15.594 25.0922 15.8299 22.9688H24.9609C25.4463 22.9688 25.8398 22.5752 25.8398 22.0898C25.8398 21.6045 25.4463 21.2109 24.9609 21.2109H15.8298C15.6865 19.9207 15.2319 18.7231 14.5426 17.6953H24.9609C25.4463 17.6953 25.8398 17.3018 25.8398 16.8164C25.8398 16.331 25.4463 15.9375 24.9609 15.9375H12.9345C11.7907 15.0125 10.385 14.3995 8.84766 14.2288V2.63672C8.84766 2.15209 9.24193 1.75781 9.72656 1.75781H22.3242V6.73828C22.3242 7.22367 22.7177 7.61719 23.2031 7.61719H28.1836V27.3633C28.1836 27.8479 27.7893 28.2422 27.3047 28.2422Z" fill="#406039"/>
<path d="M24.9609 10.6641H12.0703C11.5849 10.6641 11.1914 11.0576 11.1914 11.543C11.1914 12.0284 11.5849 12.4219 12.0703 12.4219H24.9609C25.4463 12.4219 25.8398 12.0284 25.8398 11.543C25.8398 11.0576 25.4463 10.6641 24.9609 10.6641Z" fill="#406039"/>
<path d="M11.4613 19.8864C11.1181 19.5432 10.5616 19.5432 10.2183 19.8864L6.73828 23.3665L5.60191 22.2301C5.25873 21.8869 4.70221 21.8869 4.35896 22.2301C4.01572 22.5733 4.01572 23.1298 4.35896 23.4731L6.11678 25.2309C6.2884 25.4025 6.51334 25.4883 6.73828 25.4883C6.96322 25.4883 7.18816 25.4025 7.35973 25.2309L11.4613 21.1293C11.8045 20.7861 11.8045 20.2296 11.4613 19.8864Z" fill="#406039"/>
<g clip-path="url(#clip1_1096_192)">
</g>
</g>
<defs>
<clipPath id="clip0_1096_192">
<rect width="30" height="30" fill="white"/>
</clipPath>
<clipPath id="clip1_1096_192">
<rect width="128" height="128" fill="white"/>
</clipPath>
</defs>
</svg>
