<svg width="31" height="30" viewBox="0 0 31 30" fill="none" xmlns="http://www.w3.org/2000/svg">
<g clip-path="url(#clip0_1096_205)">
<path d="M8.93384 22.4304C10.0261 21.5799 10.7306 20.2538 10.7306 18.7656C10.7306 16.2046 8.64682 14.1211 6.08586 14.1211C3.5249 14.1211 1.44139 16.2046 1.44139 18.7656C1.44139 20.2538 2.14589 21.5799 3.23788 22.4304C1.69659 23.3473 0.5 25.079 0.5 27.2383V29.1211C0.5 29.6066 0.893448 30 1.37891 30H10.793C11.2783 30 11.672 29.6066 11.672 29.1211V27.2383C11.672 25.0795 10.4756 23.3475 8.93384 22.4304ZM3.1992 18.7656C3.1992 17.1739 4.49422 15.8789 6.08609 15.8789C7.67773 15.8789 8.97275 17.1739 8.97275 18.7656C8.97275 20.3574 7.67773 21.6525 6.08609 21.6525C4.49422 21.6525 3.1992 20.3574 3.1992 18.7656ZM9.91414 28.2422H2.25781V27.2383C2.25781 25.1239 3.96848 23.4103 6.08586 23.4103C8.20027 23.4103 9.91391 25.1209 9.91391 27.2383V28.2422H9.91414Z" fill="#406039"/>
<path d="M26.7969 0H15.5C13.4547 0 11.7969 1.65482 11.7969 3.70308V20.6483C11.7969 21.3673 12.6214 21.7877 13.2032 21.3515L16.7344 18.7031H26.7969C28.8422 18.7031 30.5 17.0483 30.5 15V3.70308C30.5 1.65779 28.8452 0 26.7969 0ZM28.7422 15C28.7422 16.0753 27.8727 16.9453 26.7969 16.9453H16.4414C16.2512 16.9453 16.0663 17.0071 15.9141 17.121L13.5547 18.8905V3.70308C13.5547 2.62779 14.4243 1.75781 15.5 1.75781H26.7969C27.8722 1.75781 28.7422 2.62733 28.7422 3.70308V15Z" fill="#406039"/>
<path d="M25.8555 4.70691H16.4414C15.9559 4.70691 15.5625 5.10059 15.5625 5.58582C15.5625 6.07127 15.9559 6.46472 16.4414 6.46472H25.8555C26.3408 6.46472 26.7345 6.07127 26.7345 5.58582C26.7345 5.10059 26.341 4.70691 25.8555 4.70691Z" fill="#406039"/>
<path d="M25.8555 8.47278H16.4414C15.9559 8.47278 15.5625 8.86623 15.5625 9.35168C15.5625 9.83691 15.9559 10.2306 16.4414 10.2306H25.8555C26.3408 10.2306 26.7345 9.83691 26.7345 9.35168C26.7345 8.86623 26.341 8.47278 25.8555 8.47278Z" fill="#406039"/>
<path d="M21.1484 12.2383H16.4414C15.9559 12.2383 15.5625 12.6317 15.5625 13.1172C15.5625 13.6026 15.9559 13.9961 16.4414 13.9961H21.1484C21.6338 13.9961 22.0273 13.6026 22.0273 13.1172C22.0273 12.6317 21.6338 12.2383 21.1484 12.2383Z" fill="#406039"/>
</g>
<defs>
<clipPath id="clip0_1096_205">
<rect width="30" height="30" fill="white" transform="translate(0.5)"/>
</clipPath>
</defs>
</svg>
